<svg width="112" height="40" viewBox="0 0 112 40" fill="none" xmlns="http://www.w3.org/2000/svg">
<rect width="112" height="40" rx="8" fill="#24282A"/>
<path d="M31.6902 20.0431C31.672 17.8936 33.4712 16.8489 33.5502 16.8008C32.529 15.3358 30.9486 15.1317 30.3955 15.1137C29.0704 14.9756 27.7818 15.9002 27.1071 15.9002C26.4202 15.9002 25.3747 15.1317 24.2563 15.1497C22.8157 15.1737 21.4602 15.9963 20.7247 17.2812C19.199 19.893 20.3357 23.7357 21.8006 25.8492C22.5361 26.8819 23.3871 28.0407 24.5116 27.9987C25.6057 27.9566 26.019 27.3082 27.338 27.3082C28.651 27.3082 29.0339 27.9987 30.1767 27.9747C31.3559 27.9566 32.0914 26.9359 32.8026 25.8912C33.6475 24.7084 33.9878 23.5376 34 23.4775C33.9696 23.4655 31.7145 22.6129 31.6902 20.0431Z" fill="white"/>
<path d="M29.5312 13.7259C30.121 12.9994 30.5222 12.0087 30.4128 11C29.5616 11.036 28.4916 11.5824 27.8775 12.2969C27.3364 12.9273 26.85 13.9541 26.9716 14.9207C27.9322 14.9928 28.9171 14.4404 29.5312 13.7259Z" fill="white"/>
<path d="M45.4847 26.7588H43.9709L43.142 24.1667H40.2586L39.4717 26.7588H38L40.8533 17.9375H42.6194L45.4847 26.7588ZM42.8957 23.0798L42.1448 20.7804C42.0667 20.5415 41.9165 19.992 41.7003 19.12H41.6703C41.5802 19.4963 41.442 20.0517 41.2498 20.7804L40.5109 23.0798H42.8957Z" fill="white"/>
<path d="M52.8162 23.5027C52.8162 24.5837 52.5219 25.4377 51.9272 26.0649C51.3986 26.6263 50.7378 26.901 49.9569 26.901C49.1099 26.901 48.5032 26.6024 48.1308 25.9992V29.3377H46.7071V22.4874C46.7071 21.8065 46.6891 21.1137 46.6531 20.397H47.9025L47.9806 21.4064H48.0046C48.4792 20.6479 49.2 20.2656 50.1611 20.2656C50.918 20.2656 51.5428 20.5642 52.0473 21.1555C52.5639 21.7528 52.8162 22.5292 52.8162 23.5027ZM51.3686 23.5505C51.3686 22.9293 51.2304 22.4217 50.9481 22.0215C50.6417 21.6034 50.2272 21.3944 49.7106 21.3944C49.3622 21.3944 49.0439 21.5139 48.7555 21.7408C48.4732 21.9737 48.281 22.2724 48.1969 22.6486C48.1548 22.8218 48.1308 22.9652 48.1308 23.0786V24.1417C48.1308 24.6016 48.275 24.9958 48.5573 25.3123C48.8396 25.6289 49.212 25.7901 49.6686 25.7901C50.2032 25.7901 50.6177 25.5811 50.918 25.175C51.2184 24.7629 51.3686 24.2253 51.3686 23.5505Z" fill="white"/>
<path d="M60.1711 23.5027C60.1711 24.5837 59.8767 25.4377 59.2821 26.0649C58.7534 26.6263 58.0927 26.901 57.3118 26.901C56.4648 26.901 55.8581 26.6024 55.4857 25.9992V29.3377H54.062V22.4874C54.062 21.8065 54.044 21.1137 54.0079 20.397H55.2574L55.3355 21.4064H55.3595C55.8341 20.6479 56.5549 20.2656 57.516 20.2656C58.2729 20.2656 58.8976 20.5642 59.4022 21.1555C59.9188 21.7528 60.1711 22.5292 60.1711 23.5027ZM58.7234 23.5505C58.7234 22.9293 58.5852 22.4217 58.3029 22.0215C57.9966 21.6034 57.5821 21.3944 57.0655 21.3944C56.7171 21.3944 56.3987 21.5139 56.1104 21.7408C55.828 21.9737 55.6418 22.2724 55.5517 22.6486C55.5097 22.8218 55.4857 22.9652 55.4857 23.0786V24.1417C55.4857 24.6016 55.6298 24.9958 55.9121 25.3123C56.1945 25.6289 56.5669 25.7901 57.0234 25.7901C57.5581 25.7901 57.9785 25.5811 58.2729 25.175C58.5792 24.7629 58.7234 24.2253 58.7234 23.5505Z" fill="white"/>
<path d="M68.4034 24.2866C68.4034 25.0391 68.1391 25.6483 67.6164 26.1201C67.0398 26.6338 66.2348 26.8906 65.2016 26.8906C64.2465 26.8906 63.4837 26.7054 62.907 26.3411L63.2374 25.1646C63.8621 25.5289 64.5469 25.714 65.2918 25.714C65.8264 25.714 66.2469 25.5946 66.5412 25.3557C66.8416 25.1168 66.9917 24.7943 66.9917 24.3941C66.9917 24.0358 66.8656 23.7371 66.6253 23.4923C66.379 23.2474 65.9705 23.0205 65.3999 22.8114C63.8321 22.2321 63.0572 21.39 63.0572 20.2851C63.0572 19.5624 63.3335 18.9712 63.8801 18.5053C64.4267 18.0454 65.1536 17.8125 66.0606 17.8125C66.8656 17.8125 67.5384 17.9499 68.073 18.2306L67.7126 19.3773C67.208 19.1085 66.6433 18.9712 66.0066 18.9712C65.508 18.9712 65.1115 19.0966 64.8292 19.3355C64.5949 19.5564 64.4748 19.8192 64.4748 20.1358C64.4748 20.4822 64.613 20.7748 64.8833 20.9958C65.1175 21.2048 65.5501 21.4318 66.1748 21.6767C66.9377 21.9813 67.4963 22.3396 67.8567 22.7517C68.2232 23.1638 68.4034 23.6774 68.4034 24.2866Z" fill="white"/>
<path d="M73.1049 21.4622H71.5367V24.5499C71.5367 25.3323 71.8131 25.7265 72.3658 25.7265C72.6182 25.7265 72.8285 25.7026 72.9967 25.6608L73.0388 26.7358C72.7564 26.8374 72.3899 26.8911 71.9332 26.8911C71.3684 26.8911 70.9358 26.7179 70.6174 26.3775C70.2989 26.0371 70.1427 25.4637 70.1427 24.6634V21.4562H69.2114V20.3991H70.1427V19.2345L71.5367 18.8164V20.3991H73.1049V21.4622Z" fill="white"/>
<path d="M80.1644 23.5284C80.1644 24.5079 79.8821 25.3082 79.3235 25.9353C78.7348 26.5803 77.9539 26.9028 76.9807 26.9028C76.0437 26.9028 75.2928 26.5923 74.7341 25.9771C74.1755 25.3619 73.8992 24.5796 73.8992 23.6359C73.8992 22.6505 74.1875 21.8442 74.7582 21.2171C75.3348 20.59 76.1097 20.2734 77.0829 20.2734C78.02 20.2734 78.7768 20.584 79.3475 21.2051C79.8941 21.8024 80.1644 22.5788 80.1644 23.5284ZM78.6927 23.5583C78.6927 22.973 78.5666 22.4773 78.3143 22.0592C78.0139 21.5515 77.5875 21.3007 77.0348 21.3007C76.4641 21.3007 76.0256 21.5515 75.7313 22.0592C75.473 22.4773 75.3529 22.9849 75.3529 23.5881C75.3529 24.1734 75.479 24.6751 75.7313 25.0872C76.0377 25.5949 76.4702 25.8457 77.0228 25.8457C77.5634 25.8457 77.9899 25.5889 78.3023 25.0753C78.5606 24.6453 78.6927 24.1436 78.6927 23.5583Z" fill="white"/>
<path d="M84.7878 21.6393C84.6496 21.6154 84.4994 21.6034 84.3372 21.6034C83.8385 21.6034 83.448 21.7886 83.1776 22.1649C82.9433 22.4933 82.8231 22.9174 82.8231 23.4191V26.7577H81.3991V22.3978C81.3991 21.6632 81.3871 20.9943 81.3571 20.397H82.5948L82.6489 21.6154H82.6909C82.8411 21.1973 83.0755 20.8569 83.3999 20.6061C83.7183 20.3791 84.0608 20.2656 84.4273 20.2656C84.5595 20.2656 84.6797 20.2776 84.7818 20.2895L84.7878 21.6393Z" fill="white"/>
<path d="M91.1384 23.2741C91.1384 23.525 91.1204 23.74 91.0844 23.9132H86.8194C86.8374 24.5403 87.0417 25.024 87.4381 25.3525C87.7986 25.6452 88.2611 25.7945 88.8318 25.7945C89.4625 25.7945 90.0392 25.6929 90.5558 25.4959L90.778 26.4753C90.1713 26.7381 89.4565 26.8695 88.6335 26.8695C87.6424 26.8695 86.8615 26.5769 86.2968 25.9975C85.7322 25.4182 85.4498 24.6358 85.4498 23.6623C85.4498 22.7067 85.7141 21.9064 86.2427 21.2674C86.7954 20.5865 87.5403 20.2461 88.4773 20.2461C89.3964 20.2461 90.0992 20.5865 90.5678 21.2674C90.9462 21.8168 91.1384 22.4798 91.1384 23.2741ZM89.7809 22.9098C89.7929 22.4917 89.6968 22.1274 89.5045 21.8228C89.2582 21.4286 88.8798 21.2315 88.3752 21.2315C87.9127 21.2315 87.5342 21.4227 87.2459 21.8049C87.0116 22.1095 86.8675 22.4798 86.8254 22.9038L89.7809 22.9098Z" fill="white"/>
<path d="M41.6831 14.5586H40.9381L40.5295 13.2865H39.1116L38.721 14.5586H38L39.4 10.2227H40.2652L41.6831 14.5586ZM40.4034 12.749L40.0368 11.6142C40.0008 11.5008 39.9287 11.226 39.8145 10.796H39.8025C39.7544 10.9812 39.6944 11.2499 39.5922 11.6142L39.2317 12.749H40.4034Z" fill="white"/>
<path d="M45.191 11.4258L44.0014 14.5553H43.3224L42.1688 11.4258H42.9199L43.4546 13.0801C43.5447 13.3549 43.6229 13.6177 43.6829 13.8685H43.701C43.755 13.6416 43.8331 13.3788 43.9293 13.0801L44.458 11.4258H45.191Z" fill="white"/>
<path d="M47.7231 14.5583L47.669 14.2H47.651C47.4347 14.4866 47.1283 14.63 46.7317 14.63C46.1669 14.63 45.7704 14.2358 45.7704 13.7102C45.7704 12.9398 46.4433 12.5396 47.6089 12.5396V12.4799C47.6089 12.0678 47.3866 11.8647 46.954 11.8647C46.6416 11.8647 46.3712 11.9424 46.1309 12.0977L45.9867 11.6438C46.2751 11.4646 46.6416 11.375 47.0682 11.375C47.8913 11.375 48.3059 11.805 48.3059 12.671V13.8237C48.3059 14.1402 48.3179 14.3851 48.354 14.5702L47.7231 14.5583ZM47.627 12.9995C46.8519 12.9995 46.4613 13.1846 46.4613 13.6326C46.4613 13.9611 46.6596 14.1223 46.942 14.1223C47.2965 14.1223 47.627 13.8536 47.627 13.4833V12.9995Z" fill="white"/>
<path d="M49.865 10.9161C49.6307 10.9161 49.4504 10.7369 49.4504 10.498C49.4504 10.2591 49.6367 10.0859 49.877 10.0859C50.1174 10.0859 50.3096 10.2591 50.3036 10.498C50.3036 10.7489 50.1234 10.9161 49.865 10.9161ZM49.5285 11.4297H50.2255V14.5533H49.5285V11.4297Z" fill="white"/>
<path d="M51.4656 10H52.1625V14.557H51.4656V10Z" fill="white"/>
<path d="M55.1289 14.5604L55.0748 14.202H55.0568C54.8405 14.4887 54.534 14.632 54.1375 14.632C53.5727 14.632 53.1761 14.2379 53.1761 13.7123C53.1761 12.9418 53.8491 12.5417 55.0147 12.5417V12.482C55.0147 12.0699 54.7924 11.8668 54.3598 11.8668C54.0474 11.8668 53.777 11.9444 53.5367 12.0997L53.3924 11.6399C53.6809 11.4607 54.0474 11.3711 54.474 11.3711C55.2971 11.3711 55.7117 11.8011 55.7117 12.6671V13.8198C55.7117 14.1363 55.7237 14.3812 55.7537 14.5663H55.1289V14.5604ZM55.0327 13.0016C54.2577 13.0016 53.8671 13.1867 53.8671 13.6346C53.8671 13.9631 54.0654 14.1244 54.3478 14.1244C54.7023 14.1244 55.0327 13.8556 55.0327 13.4853V13.0016Z" fill="white"/>
<path d="M58.5474 14.6346C58.1028 14.6346 57.7723 14.4495 57.556 14.0792H57.544L57.5019 14.5629H56.9071C56.9251 14.3121 56.9311 14.0314 56.9311 13.7208V10H57.6341V11.8933H57.6461C57.8564 11.5469 58.1869 11.3737 58.6495 11.3737C59.4066 11.3737 59.9353 12.0187 59.9353 12.9563C59.9353 13.9239 59.3465 14.6346 58.5474 14.6346ZM58.4032 11.9171C58.0006 11.9171 57.6341 12.2635 57.6341 12.7473V13.2968C57.6341 13.7268 57.9646 14.0792 58.3912 14.0792C58.9139 14.0792 59.2263 13.6551 59.2263 12.9802C59.2263 12.3472 58.9019 11.9171 58.4032 11.9171Z" fill="white"/>
<path d="M60.9696 10H61.6666V14.557H60.9696V10Z" fill="white"/>
<path d="M65.4699 13.167H63.373C63.385 13.7582 63.7816 14.0927 64.3644 14.0927C64.6768 14.0927 64.9592 14.0389 65.2116 13.9434L65.3197 14.4271C65.0253 14.5585 64.6768 14.6183 64.2683 14.6183C63.2829 14.6183 62.7001 14.0031 62.7001 13.0415C62.7001 12.0859 63.2949 11.3633 64.1902 11.3633C64.9893 11.3633 65.5 11.9546 65.5 12.8504C65.5 12.9758 65.494 13.0833 65.4699 13.167ZM64.833 12.6712C64.833 12.1875 64.5867 11.847 64.1421 11.847C63.7395 11.847 63.4271 12.1934 63.379 12.6712H64.833Z" fill="white"/>
<path d="M69.7023 14.632C68.7831 14.632 68.1882 13.9512 68.1882 13.0255C68.1882 12.0579 68.7951 11.3711 69.7564 11.3711C70.6637 11.3711 71.2705 12.0221 71.2705 12.9717C71.2705 13.9452 70.6457 14.632 69.7023 14.632ZM69.7324 11.8787C69.2277 11.8787 68.9032 12.3506 68.9032 13.0016C68.9032 13.6466 69.2337 14.1124 69.7264 14.1124C70.2191 14.1124 70.5495 13.6108 70.5495 12.9836C70.5435 12.3506 70.2251 11.8787 69.7324 11.8787Z" fill="white"/>
<path d="M75.03 14.5585H74.3331V12.7608C74.3331 12.2054 74.1168 11.9307 73.6962 11.9307C73.2816 11.9307 72.9992 12.283 72.9992 12.6951V14.5526H72.3022V12.3248C72.3022 12.0501 72.2962 11.7515 72.2782 11.429H72.8911L72.9211 11.9127H72.9391C73.1254 11.5783 73.5099 11.3633 73.9365 11.3633C74.5974 11.3633 75.03 11.865 75.03 12.6832V14.5585Z" fill="white"/>
<path d="M79.5969 11.9582H78.8278V13.4752C78.8278 13.8634 78.966 14.0546 79.2364 14.0546C79.3566 14.0546 79.4647 14.0426 79.5489 14.0247L79.5669 14.5503C79.4287 14.604 79.2484 14.6279 79.0261 14.6279C78.4734 14.6279 78.1489 14.3233 78.1489 13.535V11.9582H77.6923V11.4386H78.1489V10.8653L78.8339 10.6562V11.4327H79.6029V11.9582" fill="white"/>
<path d="M83.292 14.5629H82.595V12.7772C82.595 12.2158 82.3787 11.9351 81.9582 11.9351C81.5976 11.9351 81.2612 12.1799 81.2612 12.6756V14.557H80.5642V10H81.2612V11.8753H81.2732C81.4955 11.5349 81.8079 11.3677 82.2165 11.3677C82.8834 11.3677 83.292 11.8813 83.292 12.6995V14.5629Z" fill="white"/>
<path d="M86.8646 13.167H84.7677C84.7797 13.7582 85.1762 14.0927 85.759 14.0927C86.0715 14.0927 86.3539 14.0389 86.6062 13.9434L86.7144 14.4271C86.42 14.5585 86.0715 14.6183 85.6629 14.6183C84.6775 14.6183 84.0947 14.0031 84.0947 13.0415C84.0947 12.0859 84.6896 11.3633 85.5848 11.3633C86.3839 11.3633 86.8946 11.9546 86.8946 12.8504C86.8946 12.9758 86.8886 13.0833 86.8646 13.167ZM86.2277 12.6712C86.2277 12.1875 85.9814 11.847 85.5367 11.847C85.1342 11.847 84.8157 12.1934 84.7737 12.6712H86.2277Z" fill="white"/>
</svg>
