<svg width="112" height="40" viewBox="0 0 112 40" fill="none" xmlns="http://www.w3.org/2000/svg">
<rect width="112" height="40" rx="8" fill="#24282A"/>
<path d="M49.43 13.0725C49.43 13.7066 49.2708 14.2614 48.8727 14.6577C48.395 15.1332 47.8377 15.371 47.1212 15.371C46.4047 15.371 45.8474 15.1332 45.3697 14.6577C44.892 14.1821 44.6532 13.6273 44.6532 12.914C44.6532 12.2007 44.892 11.6459 45.3697 11.1704C45.8474 10.6948 46.4047 10.457 47.1212 10.457C47.4397 10.457 47.7581 10.5363 48.0766 10.6948C48.395 10.8533 48.6339 11.0118 48.7931 11.2496L48.395 11.6459C48.0766 11.2496 47.6785 11.0911 47.1212 11.0911C46.6435 11.0911 46.1659 11.2496 45.8474 11.6459C45.4493 11.9629 45.2901 12.4385 45.2901 12.9933C45.2901 13.5481 45.4493 14.0236 45.8474 14.3407C46.2455 14.6577 46.6435 14.8955 47.1212 14.8955C47.6785 14.8955 48.0766 14.737 48.4746 14.3407C48.7135 14.1029 48.8727 13.7859 48.8727 13.3896H47.1212V12.7555H49.43V13.0725ZM53.0922 11.0911H50.9427V12.597H52.933V13.1518H50.9427V14.6577H53.0922V15.2918H50.3058V10.5363H53.0922V11.0911ZM55.7195 15.2918H55.0826V11.0911H53.7291V10.5363H57.0729V11.0911H55.7195V15.2918ZM59.3817 15.2918V10.5363H60.0186V15.2918H59.3817ZM62.7255 15.2918H62.0886V11.0911H60.7351V10.5363H63.9993V11.0911H62.6459V15.2918H62.7255ZM70.2888 14.6577C69.8111 15.1332 69.2538 15.371 68.5373 15.371C67.8207 15.371 67.2634 15.1332 66.7858 14.6577C66.3081 14.1821 66.0692 13.6273 66.0692 12.914C66.0692 12.2007 66.3081 11.6459 66.7858 11.1704C67.2634 10.6948 67.8207 10.457 68.5373 10.457C69.2538 10.457 69.8111 10.6948 70.2888 11.1704C70.7664 11.6459 71.0053 12.2007 71.0053 12.914C71.0053 13.6273 70.7664 14.1821 70.2888 14.6577ZM67.2634 14.2614C67.5819 14.5784 68.0596 14.8162 68.5373 14.8162C69.0149 14.8162 69.4926 14.6577 69.8111 14.2614C70.1295 13.9444 70.3684 13.4688 70.3684 12.914C70.3684 12.3592 70.2091 11.8837 69.8111 11.5666C69.4926 11.2496 69.0149 11.0118 68.5373 11.0118C68.0596 11.0118 67.5819 11.1704 67.2634 11.5666C66.945 11.8837 66.7061 12.3592 66.7061 12.914C66.7061 13.4688 66.8654 13.9444 67.2634 14.2614ZM71.881 15.2918V10.5363H72.5976L74.9063 14.2614V10.5363H75.5432V15.2918H74.9063L72.4383 11.4081V15.2918H71.881Z" fill="white" stroke="white" stroke-width="0.370767" stroke-miterlimit="10"/>
<path d="M60.8212 21.7879C59.384 21.7879 58.2463 22.8347 58.2463 24.2885C58.2463 25.6842 59.384 26.7891 60.8212 26.7891C62.2583 26.7891 63.3961 25.7424 63.3961 24.2885C63.3961 22.7765 62.2583 21.7879 60.8212 21.7879ZM60.8212 25.7424C60.0427 25.7424 59.384 25.1027 59.384 24.2304C59.384 23.3581 60.0427 22.7184 60.8212 22.7184C61.5996 22.7184 62.2583 23.2999 62.2583 24.2304C62.2583 25.1027 61.5996 25.7424 60.8212 25.7424ZM55.2522 21.7879C53.8151 21.7879 52.6773 22.8347 52.6773 24.2885C52.6773 25.6842 53.8151 26.7891 55.2522 26.7891C56.6894 26.7891 57.8271 25.7424 57.8271 24.2885C57.8271 22.7765 56.6894 21.7879 55.2522 21.7879ZM55.2522 25.7424C54.4738 25.7424 53.8151 25.1027 53.8151 24.2304C53.8151 23.3581 54.4738 22.7184 55.2522 22.7184C56.0307 22.7184 56.6894 23.2999 56.6894 24.2304C56.6894 25.1027 56.0307 25.7424 55.2522 25.7424ZM48.6054 22.5439V23.5907H51.1803C51.1204 24.1722 50.8809 24.6374 50.5815 24.9282C50.2222 25.2771 49.6234 25.6842 48.6054 25.6842C46.9886 25.6842 45.7909 24.463 45.7909 22.8928C45.7909 21.3227 47.0485 20.1015 48.6054 20.1015C49.4437 20.1015 50.1024 20.4504 50.5815 20.8575L51.3599 20.1015C50.7012 19.5199 49.8629 19.0547 48.6653 19.0547C46.5095 19.0547 44.6532 20.7993 44.6532 22.8928C44.6532 24.9864 46.5095 26.731 48.6653 26.731C49.8629 26.731 50.7012 26.382 51.4198 25.626C52.1384 24.9282 52.3779 23.9396 52.3779 23.1836C52.3779 22.951 52.3779 22.7184 52.318 22.5439H48.6054ZM75.7915 23.3581C75.552 22.7765 74.9532 21.7879 73.6358 21.7879C72.3184 21.7879 71.2406 22.7765 71.2406 24.2885C71.2406 25.6842 72.3184 26.7891 73.7556 26.7891C74.8933 26.7891 75.6119 26.0913 75.8514 25.6842L75.0131 25.1027C74.7137 25.5097 74.3544 25.8005 73.7556 25.8005C73.1568 25.8005 72.7975 25.5679 72.4981 25.0445L75.9113 23.6488L75.7915 23.3581ZM72.3184 24.1722C72.3184 23.2417 73.0969 22.7184 73.6358 22.7184C74.055 22.7184 74.4741 22.951 74.5939 23.2417L72.3184 24.1722ZM69.504 26.5565H70.6417V19.2873H69.504V26.5565ZM67.7075 22.3113C67.4081 22.0205 66.9291 21.7298 66.3303 21.7298C65.0728 21.7298 63.8751 22.8347 63.8751 24.2304C63.8751 25.626 65.0129 26.6728 66.3303 26.6728C66.9291 26.6728 67.4081 26.382 67.6477 26.0913H67.7075V26.4402C67.7075 27.3707 67.1686 27.894 66.3303 27.894C65.6716 27.894 65.1925 27.4288 65.0728 27.0217L64.1147 27.4288C64.4141 28.0685 65.1326 28.8827 66.3902 28.8827C67.7075 28.8827 68.7854 28.1267 68.7854 26.3239V21.9042H67.7075V22.3113ZM66.3902 25.7424C65.6117 25.7424 64.953 25.1027 64.953 24.2304C64.953 23.3581 65.6117 22.7184 66.3902 22.7184C67.1686 22.7184 67.7674 23.3581 67.7674 24.2304C67.7674 25.1027 67.1686 25.7424 66.3902 25.7424ZM81.0012 19.2873H78.3066V26.5565H79.4443V23.8233H81.0012C82.2587 23.8233 83.4564 22.951 83.4564 21.5553C83.4564 20.1596 82.2587 19.2873 81.0012 19.2873ZM81.0611 22.7765H79.4443V20.2759H81.0611C81.8994 20.2759 82.3785 20.9738 82.3785 21.4971C82.3186 22.1368 81.8396 22.7765 81.0611 22.7765ZM87.9475 21.7298C87.1091 21.7298 86.2708 22.0787 85.9714 22.8347L86.9894 23.2417C87.2289 22.8347 87.5882 22.7184 88.0074 22.7184C88.6062 22.7184 89.1451 23.0673 89.205 23.6488V23.707C89.0253 23.5907 88.5463 23.4162 88.0672 23.4162C86.9894 23.4162 85.9115 23.9977 85.9115 25.0445C85.9115 26.0331 86.8097 26.6728 87.7678 26.6728C88.5463 26.6728 88.9056 26.3239 89.205 25.975H89.2649V26.5565H90.3427V23.7651C90.223 22.4858 89.205 21.7298 87.9475 21.7298ZM87.8277 25.7424C87.4684 25.7424 86.9295 25.5679 86.9295 25.1027C86.9295 24.5211 87.5882 24.3467 88.1271 24.3467C88.6062 24.3467 88.8457 24.463 89.1451 24.5793C89.0253 25.2771 88.4265 25.7424 87.8277 25.7424ZM94.1153 21.9042L92.8577 25.0445H92.7979L91.4805 21.9042H90.2828L92.2589 26.3239L91.1212 28.7663H92.2589L95.3129 21.9042H94.1153ZM84.0552 26.5565H85.1929V19.2873H84.0552V26.5565Z" fill="white"/>
<path d="M16.9604 8.8125C16.6901 9.08126 16.6 9.52919 16.6 10.0667V29.8653C16.6 30.4028 16.7802 30.8508 17.0505 31.1195L17.1406 31.2091L28.3136 20.1004V19.9212L16.9604 8.8125Z" fill="url(#paint0_linear)"/>
<path d="M31.9193 23.8688L28.225 20.1957V19.9269L31.9193 16.2539L32.0094 16.3435L36.4245 18.8519C37.686 19.5686 37.686 20.7332 36.4245 21.4499L31.9193 23.8688Z" fill="url(#paint1_linear)"/>
<path d="M32.0112 23.7748L28.2268 20.0122L16.9637 31.2105C17.4143 31.6584 18.045 31.6584 18.8559 31.3001L32.0112 23.7748Z" fill="url(#paint2_linear)"/>
<path d="M32.0112 16.2497L18.8559 8.81402C18.045 8.36609 17.4143 8.45568 16.9637 8.90361L28.2268 20.0123L32.0112 16.2497Z" fill="url(#paint3_linear)"/>
<path opacity="0.2" d="M31.9205 23.6836L18.8553 31.0297C18.1345 31.4776 17.5038 31.388 17.0532 31.0297L16.9631 31.1193L17.0532 31.2088C17.5038 31.5672 18.1345 31.6568 18.8553 31.2088L31.9205 23.6836Z" fill="white"/>
<path opacity="0.2" d="M16.9609 31.0313C16.6906 30.7626 16.6005 30.3146 16.6005 29.7771V29.8667C16.6005 30.4042 16.7807 30.8522 17.051 31.1209V31.0313H16.9609ZM36.4235 21.1768L31.9183 23.6853L32.0084 23.7748L36.4235 21.2664C37.0542 20.9081 37.3245 20.4601 37.3245 20.0122C37.3245 20.4601 36.9641 20.8185 36.4235 21.1768Z" fill="white"/>
<path opacity="0.2" d="M18.8526 8.90566L36.423 18.8497C36.9636 19.2081 37.324 19.5664 37.324 20.0144C37.324 19.5664 37.0537 19.1185 36.423 18.7602L18.8526 8.81607C17.5911 8.09938 16.6 8.6369 16.6 10.0703V10.1599C16.6 8.81607 17.5911 8.18896 18.8526 8.90566Z" fill="white"/>
<defs>
<linearGradient id="paint0_linear" x1="27.2323" y1="9.8965" x2="12.1973" y2="25.0176" gradientUnits="userSpaceOnUse">
<stop stop-color="#00A0FF"/>
<stop offset="0.007" stop-color="#00A1FF"/>
<stop offset="0.26" stop-color="#00BEFF"/>
<stop offset="0.512" stop-color="#00D2FF"/>
<stop offset="0.76" stop-color="#00DFFF"/>
<stop offset="1" stop-color="#00E3FF"/>
</linearGradient>
<linearGradient id="paint1_linear" x1="38.077" y1="20.0174" x2="16.2744" y2="20.0174" gradientUnits="userSpaceOnUse">
<stop stop-color="#FFE000"/>
<stop offset="0.409" stop-color="#FFBD00"/>
<stop offset="0.775" stop-color="#FFA500"/>
<stop offset="1" stop-color="#FF9C00"/>
</linearGradient>
<linearGradient id="paint2_linear" x1="29.9631" y1="22.0691" x2="9.5754" y2="42.5748" gradientUnits="userSpaceOnUse">
<stop stop-color="#FF3A44"/>
<stop offset="1" stop-color="#C31162"/>
</linearGradient>
<linearGradient id="paint3_linear" x1="14.1678" y1="2.25272" x2="23.2723" y2="11.4099" gradientUnits="userSpaceOnUse">
<stop stop-color="#32A071"/>
<stop offset="0.069" stop-color="#2DA771"/>
<stop offset="0.476" stop-color="#15CF74"/>
<stop offset="0.801" stop-color="#06E775"/>
<stop offset="1" stop-color="#00F076"/>
</linearGradient>
</defs>
</svg>
