<svg width="16" height="16" viewBox="0 0 16 16" fill="none" xmlns="http://www.w3.org/2000/svg">
<g clip-path="url(#clip0_1114_2096)">
<path d="M11 2.00244H5C3.34315 2.00244 2 3.34559 2 5.00244V11.0024C2 12.6593 3.34315 14.0024 5 14.0024H11C12.6569 14.0024 14 12.6593 14 11.0024V5.00244C14 3.34559 12.6569 2.00244 11 2.00244Z" stroke="white" stroke-width="1.6" stroke-linecap="round" stroke-linejoin="round"/>
<path d="M10.401 7.62499C10.475 8.12434 10.3898 8.63432 10.1573 9.0824C9.92475 9.53048 9.55689 9.89384 9.10597 10.1208C8.65506 10.3478 8.14407 10.4267 7.64567 10.3465C7.14727 10.2664 6.68685 10.031 6.3299 9.67409C5.97295 9.31713 5.73764 8.85671 5.65744 8.35832C5.57724 7.85992 5.65624 7.34893 5.88319 6.89801C6.11015 6.4471 6.47351 6.07923 6.92159 5.84673C7.36967 5.61423 7.87965 5.52894 8.379 5.60299C8.88835 5.67852 9.35991 5.91587 9.72401 6.27997C10.0881 6.64408 10.3255 7.11564 10.401 7.62499Z" stroke="white" stroke-width="1.6" stroke-linecap="round" stroke-linejoin="round"/>
<ellipse cx="11.3004" cy="4.70066" rx="0.900001" ry="0.9" fill="white"/>
</g>
<defs>
<clipPath id="clip0_1114_2096">
<rect width="14.4" height="14.4" fill="white" transform="translate(0.800781 0.801514)"/>
</clipPath>
</defs>
</svg>
