<svg width="103" height="56" viewBox="0 0 103 56" fill="none" xmlns="http://www.w3.org/2000/svg">
<g clip-path="url(#clip0_1110_7671)">
<path d="M7.82924 45.1337C8.77042 46.6738 10.9095 48.385 14.6742 48.385C17.1127 48.385 20.8346 46.9732 20.8346 42.4813V40.5989C19.3373 42.2246 17.1982 42.8663 14.6742 43.0802C6.97363 43.7219 0.128705 37.8182 0.000362386 30.0749C-0.12798 22.5454 5.09127 16.385 12.5779 16.385C15.9148 16.385 18.6528 17.4545 20.7062 19.3797H20.8346V17.1123H29.5619V43.123C29.5619 51.5936 23.3159 56 14.6742 56C9.41213 56 3.33726 54.8021 0.642074 48.6417L7.82924 45.1337ZM15.1875 35.7219C18.61 35.7219 21.0485 33.2406 21.0485 29.8182C21.0485 26.3101 18.4389 23.8289 15.1875 23.8289C11.8934 23.8289 9.28379 26.3101 9.28379 29.8182C9.28379 33.2406 11.6367 35.7219 15.1875 35.7219Z" fill="#24282A"/>
<path d="M32.0859 0H40.8132V42.4385H32.0859V0Z" fill="#24282A"/>
<path d="M51.9367 30.9732C51.9367 34.8663 55.188 36.1925 57.4126 36.1925C60.2362 36.1925 61.4768 35.6363 63.5731 33.369L69.9046 36.5347C67.0383 41.3262 62.418 43.1658 56.7709 43.1658C49.1132 43.1658 42.8672 37.1337 42.8672 29.7754C42.8672 22.3743 49.1132 16.3422 56.7709 16.3422C64.4715 16.3422 70.3324 20.877 70.3324 29.7754C70.3324 30.1176 70.3324 30.6738 70.2897 30.9732H51.9367ZM61.8191 26.139C61.434 23.4866 59.5945 22.0321 57.0276 22.0321C54.033 22.0321 52.3217 23.8289 52.1934 26.139H61.8191Z" fill="#24282A"/>
<path d="M92.2776 29.1337L100.235 17.1551H90.6519L87.4434 22.0321L92.2776 29.1337Z" fill="#24282A"/>
<path d="M92.278 31.2299L87.5293 38.0321L91.9785 42.4385L102.032 42.4813L92.278 31.2299Z" fill="#24282A"/>
<path d="M91.1666 30.0749L76.7923 30.1177L68.1934 17.1551H82.5249L91.1666 30.0749Z" fill="#F16025"/>
<path d="M68.1934 42.4813H82.5249L91.1666 30.0749L76.7923 30.1177L68.1934 42.4813Z" fill="#F68722"/>
</g>
<defs>
<clipPath id="clip0_1110_7671">
<rect width="102.032" height="56" fill="white"/>
</clipPath>
</defs>
</svg>
