<svg width="12" height="10" viewBox="0 0 12 10" fill="none" xmlns="http://www.w3.org/2000/svg">
<path d="M11.829 1.27992C11.4004 1.49581 10.9718 1.56778 10.4718 1.63974C10.9718 1.35188 11.329 0.92009 11.4718 0.34437C11.0432 0.63223 10.5432 0.77616 9.97182 0.92009C9.54325 0.4883 8.90039 0.200439 8.25753 0.200439C7.04325 0.200439 5.97182 1.27992 5.97182 2.57529C5.97182 2.79118 5.97182 2.93511 6.04325 3.07904C4.11468 3.00708 2.32896 2.07153 1.1861 0.63223C0.971819 0.992055 0.900391 1.35188 0.900391 1.85564C0.900391 2.64725 1.32896 3.3669 1.97182 3.79869C1.61468 3.79869 1.25753 3.65476 0.900391 3.51083C0.900391 4.66227 1.6861 5.59782 2.75753 5.81371C2.54325 5.88568 2.32896 5.88568 2.11468 5.88568C1.97182 5.88568 1.82896 5.88568 1.6861 5.81371C1.97182 6.74926 2.82896 7.46891 3.90039 7.46891C3.11468 8.1166 2.11468 8.47642 0.971819 8.47642C0.757534 8.47642 0.614676 8.47642 0.400391 8.47642C1.47182 9.12411 2.68611 9.5559 3.97182 9.5559C8.25753 9.5559 10.6147 5.95764 10.6147 2.86315C10.6147 2.79118 10.6147 2.64725 10.6147 2.57529C11.1147 2.21546 11.5432 1.78367 11.829 1.27992Z" fill="current"/>
</svg>
