<svg width="14" height="10" viewBox="0 0 14 10" fill="none" xmlns="http://www.w3.org/2000/svg">
<path d="M13.466 1.62588C13.3104 1.04754 12.8544 0.591632 12.2761 0.435901C11.2197 0.146851 6.99397 0.146851 6.99397 0.146851C6.99397 0.146851 2.76839 0.146851 1.71197 0.424942C1.14483 0.580508 0.677716 1.04762 0.52215 1.62588C0.244141 2.68222 0.244141 4.87292 0.244141 4.87292C0.244141 4.87292 0.244141 7.07466 0.52215 8.11996C0.677881 8.69822 1.1337 9.15413 1.71205 9.30986C2.77951 9.59899 6.99414 9.59899 6.99414 9.59899C6.99414 9.59899 11.2197 9.59899 12.2761 9.3209C12.8545 9.16525 13.3104 8.70935 13.4661 8.13108C13.7441 7.07466 13.7441 4.88404 13.7441 4.88404C13.7441 4.88404 13.7552 2.68222 13.466 1.62588ZM5.64859 6.89677V2.84907L9.16251 4.87292L5.64859 6.89677Z" fill="current"/>
</svg>
